<svg width="46" height="26" viewBox="0 0 46 26" fill="none" xmlns="http://www.w3.org/2000/svg">
<path d="M43.6057 10.2102L39.9106 8.52288L36.6491 3.31961C35.7065 1.81142 34.0475 0.897079 32.2659 0.906505H18.3717C16.7598 0.906505 15.2328 1.65117 14.2524 2.93314L10.0389 8.44747L3.01639 10.3704C1.23483 10.8606 0 12.4913 0 14.3389V17.0253C0 19.297 1.80983 21.1729 4.08155 21.1729H4.68483C5.41065 23.9724 8.26679 25.6503 11.0664 24.9245C12.9045 24.4438 14.3467 23.011 14.818 21.1729H30.654C31.3799 23.9724 34.236 25.6503 37.0356 24.9245C38.8737 24.4438 40.3159 23.011 40.7872 21.1729H41.9184C44.1901 21.1729 45.9999 19.297 45.9999 17.0253V13.9618C46.0093 12.3499 45.0667 10.8794 43.6057 10.2102ZM9.7467 23.1901C7.89916 23.1901 6.4004 21.6913 6.4004 19.8438C6.4004 17.9962 7.89916 16.4975 9.7467 16.4975C11.5942 16.4975 13.093 17.9962 13.093 19.8438C13.1024 21.6819 11.6037 23.1806 9.7467 23.1901ZM35.7159 23.1901C33.8684 23.1901 32.3696 21.6913 32.3696 19.8438C32.3696 17.9962 33.8684 16.4975 35.7159 16.4975C37.5634 16.4975 39.0622 17.9962 39.0622 19.8438C39.0716 21.6819 37.5729 23.1806 35.7159 23.1901ZM41.9184 19.2876H40.9192C40.6081 16.4126 38.0159 14.3389 35.1409 14.6593C32.6995 14.9233 30.7766 16.8557 30.5126 19.2876H14.95C14.6389 16.4126 12.0467 14.3389 9.1717 14.6593C6.73031 14.9233 4.80737 16.8557 4.54343 19.2876H4.07212C2.83729 19.2876 1.87582 18.2602 1.87582 17.0253V14.3389C1.86639 13.3303 2.53565 12.4536 3.50655 12.1803L10.8496 10.1725C11.0475 10.1159 11.2266 10.0028 11.3492 9.83313L15.7418 4.07371C16.3733 3.26306 17.3442 2.79175 18.3717 2.79175H32.2659C33.3971 2.78232 34.4622 3.35732 35.0561 4.31879L38.4684 9.76714C38.5626 9.92739 38.7134 10.0499 38.8737 10.1253L42.8139 11.9257C43.6057 12.2934 44.1147 13.0852 44.1052 13.9618V17.0253H44.1147C44.1147 18.2602 43.1532 19.2876 41.9184 19.2876Z" fill="black"/>
</svg>
